<!-- Generated by IcoMoon.io -->
<svg version="1.1" xmlns="http://www.w3.org/2000/svg" width="559" height="32" viewBox="0 0 559 32">
<title>checkbox-form</title>
<path fill="#212121" d="M18.963 8.889v15.556h-16.593v-15.556h16.593zM18.963 6.667h-16.593c-1.304 0-2.37 1-2.37 2.222v15.556c0 1.222 1.067 2.222 2.37 2.222h16.593c1.304 0 2.37-1 2.37-2.222v-15.556c0-1.222-1.067-2.222-2.37-2.222z"></path>
<path fill="#757575" d="M43.749 16.46c0 1.3-0.219 2.437-0.656 3.409-0.437 0.966-1.057 1.704-1.859 2.215s-1.738 0.766-2.807 0.766c-1.045 0-1.972-0.255-2.78-0.766-0.808-0.517-1.437-1.249-1.887-2.197-0.443-0.954-0.671-2.057-0.684-3.309v-0.957c0-1.276 0.222-2.403 0.665-3.381s1.069-1.726 1.878-2.242c0.814-0.523 1.744-0.784 2.789-0.784 1.063 0 1.999 0.258 2.807 0.775 0.814 0.51 1.44 1.255 1.878 2.233 0.438 0.972 0.656 2.105 0.656 3.4v0.839zM42.008 15.603c0-1.574-0.316-2.78-0.948-3.618-0.632-0.845-1.516-1.267-2.652-1.267-1.106 0-1.978 0.422-2.616 1.267-0.632 0.839-0.957 2.005-0.975 3.5v0.975c0 1.525 0.319 2.725 0.957 3.6 0.644 0.869 1.528 1.303 2.652 1.303 1.13 0 2.005-0.41 2.625-1.231 0.62-0.826 0.939-2.008 0.957-3.546v-0.984zM52.412 20.051c0-0.456-0.173-0.808-0.52-1.057-0.34-0.255-0.939-0.474-1.796-0.656-0.851-0.182-1.528-0.401-2.033-0.656-0.498-0.255-0.869-0.559-1.112-0.911-0.237-0.352-0.355-0.772-0.355-1.258 0-0.808 0.34-1.492 1.021-2.051 0.687-0.559 1.562-0.839 2.625-0.839 1.118 0 2.023 0.289 2.716 0.866 0.699 0.577 1.048 1.316 1.048 2.215h-1.695c0-0.462-0.197-0.86-0.593-1.194-0.389-0.334-0.881-0.501-1.477-0.501-0.614 0-1.094 0.134-1.44 0.401s-0.519 0.617-0.519 1.048c0 0.407 0.161 0.714 0.483 0.921s0.902 0.404 1.741 0.592c0.845 0.188 1.528 0.413 2.051 0.675s0.909 0.577 1.158 0.948c0.255 0.365 0.383 0.811 0.383 1.34 0 0.881-0.352 1.589-1.057 2.124-0.705 0.529-1.619 0.793-2.744 0.793-0.79 0-1.489-0.14-2.096-0.419s-1.085-0.668-1.431-1.167c-0.34-0.504-0.51-1.048-0.51-1.632h1.686c0.030 0.565 0.255 1.015 0.674 1.349 0.425 0.328 0.984 0.492 1.677 0.492 0.638 0 1.149-0.128 1.531-0.383 0.389-0.261 0.583-0.608 0.583-1.039zM51.345 8.667h2.042l-2.443 2.68h-1.358l1.759-2.68zM65.586 20.342l1.896-7.538h1.686l-2.871 9.862h-1.367l-2.397-7.474-2.333 7.474h-1.367l-2.862-9.862h1.677l1.941 7.383 2.297-7.383h1.358l2.342 7.538zM73.283 22.667h-1.686v-9.862h1.686v9.862zM71.46 10.189c0-0.273 0.082-0.504 0.246-0.693 0.17-0.188 0.419-0.283 0.747-0.283s0.577 0.094 0.747 0.283c0.17 0.188 0.255 0.419 0.255 0.693s-0.085 0.501-0.255 0.684c-0.17 0.182-0.419 0.273-0.747 0.273s-0.577-0.091-0.747-0.273c-0.164-0.182-0.246-0.41-0.246-0.684zM82.638 22.667c-0.097-0.194-0.176-0.541-0.237-1.039-0.784 0.814-1.72 1.221-2.807 1.221-0.972 0-1.771-0.273-2.397-0.82-0.62-0.553-0.93-1.252-0.93-2.096 0-1.027 0.389-1.823 1.167-2.388 0.784-0.571 1.884-0.857 3.299-0.857h1.641v-0.775c0-0.589-0.176-1.057-0.529-1.404-0.352-0.352-0.872-0.529-1.559-0.529-0.602 0-1.106 0.152-1.513 0.456s-0.611 0.671-0.611 1.103h-1.695c0-0.492 0.173-0.966 0.519-1.422 0.353-0.462 0.826-0.826 1.422-1.094 0.601-0.267 1.261-0.401 1.978-0.401 1.136 0 2.026 0.286 2.671 0.857 0.644 0.565 0.978 1.346 1.003 2.342v4.539c0 0.905 0.115 1.625 0.346 2.16v0.146h-1.768zM79.84 21.381c0.529 0 1.030-0.137 1.504-0.41s0.817-0.629 1.030-1.066v-2.023h-1.322c-2.066 0-3.099 0.605-3.099 1.814 0 0.529 0.176 0.942 0.529 1.24s0.805 0.447 1.358 0.447zM86.853 17.654c0-1.513 0.359-2.728 1.076-3.646 0.717-0.924 1.656-1.385 2.816-1.385 1.155 0 2.069 0.395 2.743 1.185v-5.141h1.686v14h-1.549l-0.082-1.057c-0.674 0.826-1.613 1.24-2.816 1.24-1.142 0-2.075-0.468-2.798-1.404-0.717-0.936-1.076-2.157-1.076-3.664v-0.128zM88.54 17.845c0 1.118 0.231 1.993 0.693 2.625s1.1 0.948 1.914 0.948c1.069 0 1.85-0.48 2.342-1.44v-4.53c-0.504-0.93-1.279-1.395-2.324-1.395-0.826 0-1.47 0.319-1.932 0.957s-0.693 1.583-0.693 2.835zM102.316 21.473c0.602 0 1.127-0.182 1.577-0.547s0.699-0.82 0.747-1.367h1.595c-0.030 0.565-0.225 1.103-0.583 1.613s-0.839 0.918-1.44 1.221c-0.595 0.304-1.227 0.456-1.896 0.456-1.343 0-2.412-0.447-3.208-1.34-0.79-0.899-1.185-2.127-1.185-3.682v-0.283c0-0.96 0.176-1.814 0.529-2.561s0.857-1.328 1.513-1.741c0.662-0.413 1.443-0.62 2.343-0.62 1.106 0 2.023 0.331 2.753 0.993 0.735 0.662 1.127 1.522 1.176 2.579h-1.595c-0.049-0.638-0.292-1.161-0.729-1.568-0.431-0.413-0.966-0.62-1.604-0.62-0.857 0-1.522 0.31-1.996 0.93-0.468 0.614-0.702 1.504-0.702 2.671v0.319c0 1.136 0.234 2.011 0.702 2.625s1.136 0.921 2.005 0.921zM110.277 21.29h5.769v1.376h-7.829v-1.24l5.441-7.228h-5.359v-1.395h7.474v1.194l-5.496 7.292zM124.6 22.667c-0.097-0.194-0.176-0.541-0.237-1.039-0.784 0.814-1.72 1.221-2.807 1.221-0.972 0-1.771-0.273-2.397-0.82-0.62-0.553-0.93-1.252-0.93-2.096 0-1.027 0.389-1.823 1.167-2.388 0.784-0.571 1.884-0.857 3.299-0.857h1.641v-0.775c0-0.589-0.176-1.057-0.529-1.404-0.352-0.352-0.872-0.529-1.559-0.529-0.602 0-1.106 0.152-1.513 0.456s-0.611 0.671-0.611 1.103h-1.695c0-0.492 0.173-0.966 0.52-1.422 0.352-0.462 0.826-0.826 1.422-1.094 0.601-0.267 1.261-0.401 1.978-0.401 1.136 0 2.026 0.286 2.671 0.857 0.644 0.565 0.978 1.346 1.003 2.342v4.539c0 0.905 0.115 1.625 0.346 2.16v0.146h-1.768zM121.802 21.381c0.529 0 1.030-0.137 1.504-0.41s0.817-0.629 1.030-1.066v-2.023h-1.322c-2.066 0-3.099 0.605-3.099 1.814 0 0.529 0.176 0.942 0.529 1.24s0.805 0.447 1.358 0.447zM130.811 12.805l0.046 1.094c0.723-0.851 1.698-1.276 2.926-1.276 1.379 0 2.317 0.529 2.816 1.586 0.328-0.474 0.753-0.857 1.276-1.148 0.528-0.292 1.152-0.438 1.868-0.438 2.164 0 3.264 1.145 3.3 3.436v6.608h-1.687v-6.508c0-0.705-0.16-1.23-0.483-1.577-0.323-0.352-0.863-0.529-1.623-0.529-0.625 0-1.145 0.188-1.559 0.565-0.413 0.371-0.653 0.872-0.72 1.504v6.544h-1.695v-6.462c0-1.434-0.703-2.151-2.106-2.151-1.106 0-1.862 0.471-2.269 1.413v7.201h-1.686v-9.862h1.595zM153.177 22.667h-1.687v-9.862h1.687v9.862zM151.355 10.189c0-0.273 0.081-0.504 0.245-0.693 0.171-0.188 0.42-0.283 0.748-0.283s0.577 0.094 0.747 0.283c0.171 0.188 0.256 0.419 0.256 0.693s-0.085 0.501-0.256 0.684c-0.169 0.182-0.419 0.273-0.747 0.273s-0.577-0.091-0.748-0.273c-0.164-0.182-0.245-0.41-0.245-0.684zM158.029 21.29h5.771v1.376h-7.829v-1.24l5.441-7.228h-5.36v-1.395h7.473v1.194l-5.496 7.292zM158.859 10.207c0-0.273 0.083-0.504 0.247-0.693 0.171-0.188 0.42-0.283 0.748-0.283s0.577 0.094 0.747 0.283c0.171 0.188 0.256 0.419 0.256 0.693s-0.085 0.501-0.256 0.684c-0.169 0.182-0.419 0.273-0.747 0.273s-0.577-0.091-0.748-0.273c-0.164-0.182-0.247-0.41-0.247-0.684zM177.543 22.667c-0.097-0.194-0.176-0.541-0.236-1.039-0.784 0.814-1.72 1.221-2.808 1.221-0.972 0-1.771-0.273-2.397-0.82-0.62-0.553-0.929-1.252-0.929-2.096 0-1.027 0.389-1.823 1.167-2.388 0.784-0.571 1.884-0.857 3.3-0.857h1.64v-0.775c0-0.589-0.176-1.057-0.528-1.404-0.353-0.352-0.872-0.529-1.559-0.529-0.603 0-1.107 0.152-1.513 0.456s-0.611 0.671-0.611 1.103h-1.696c0-0.492 0.173-0.966 0.52-1.422 0.352-0.462 0.827-0.826 1.421-1.094 0.603-0.267 1.261-0.401 1.979-0.401 1.136 0 2.027 0.286 2.671 0.857 0.644 0.565 0.979 1.346 1.003 2.342v4.539c0 0.905 0.115 1.625 0.347 2.16v0.146h-1.769zM174.745 21.381c0.528 0 1.029-0.137 1.504-0.41 0.473-0.273 0.817-0.629 1.029-1.066v-2.023h-1.321c-2.067 0-3.099 0.605-3.099 1.814 0 0.529 0.176 0.942 0.528 1.24s0.805 0.447 1.359 0.447zM184.921 18.1l-1.057 1.103v3.464h-1.687v-14h1.687v8.467l0.901-1.085 3.072-3.245h2.051l-3.837 4.12 4.284 5.742h-1.977l-3.436-4.566zM195.963 21.473c0.601 0 1.127-0.182 1.577-0.547 0.449-0.365 0.699-0.82 0.747-1.367h1.595c-0.029 0.565-0.224 1.103-0.583 1.613s-0.839 0.918-1.44 1.221c-0.596 0.304-1.228 0.456-1.896 0.456-1.343 0-2.412-0.447-3.208-1.34-0.791-0.899-1.185-2.127-1.185-3.682v-0.283c0-0.96 0.176-1.814 0.529-2.561 0.352-0.747 0.856-1.328 1.512-1.741 0.663-0.413 1.444-0.62 2.343-0.62 1.107 0 2.024 0.331 2.753 0.993 0.735 0.662 1.127 1.522 1.175 2.579h-1.595c-0.048-0.638-0.292-1.161-0.729-1.568-0.431-0.413-0.965-0.62-1.604-0.62-0.856 0-1.521 0.31-1.996 0.93-0.468 0.614-0.701 1.504-0.701 2.671v0.319c0 1.136 0.233 2.011 0.701 2.625s1.136 0.921 2.005 0.921zM206.431 22.849c-1.337 0-2.425-0.437-3.264-1.313-0.839-0.881-1.257-2.057-1.257-3.527v-0.31c0-0.978 0.185-1.85 0.556-2.616 0.377-0.772 0.899-1.373 1.568-1.805 0.675-0.438 1.403-0.656 2.187-0.656 1.283 0 2.279 0.422 2.991 1.267 0.711 0.845 1.065 2.054 1.065 3.628v0.702h-6.68c0.024 0.972 0.307 1.759 0.847 2.361 0.548 0.595 1.24 0.893 2.079 0.893 0.596 0 1.1-0.122 1.513-0.365s0.775-0.565 1.084-0.966l1.031 0.802c-0.827 1.27-2.067 1.905-3.719 1.905zM206.22 14.008c-0.68 0-1.251 0.249-1.713 0.747-0.461 0.492-0.747 1.185-0.856 2.078h4.94v-0.128c-0.049-0.857-0.28-1.519-0.693-1.987-0.413-0.474-0.972-0.711-1.677-0.711zM221.127 17.845c0 1.501-0.343 2.71-1.029 3.628s-1.617 1.376-2.789 1.376c-1.197 0-2.139-0.38-2.825-1.139v4.749h-1.687v-13.654h1.54l0.083 1.094c0.687-0.851 1.64-1.276 2.861-1.276 1.185 0 2.121 0.447 2.808 1.34 0.692 0.893 1.039 2.136 1.039 3.728v0.155zM219.441 17.654c0-1.112-0.237-1.99-0.712-2.634-0.473-0.644-1.124-0.966-1.951-0.966-1.020 0-1.785 0.453-2.296 1.358v4.712c0.504 0.899 1.276 1.349 2.315 1.349 0.808 0 1.449-0.319 1.923-0.957 0.48-0.644 0.721-1.598 0.721-2.862zM226.125 10.417v2.388h1.841v1.303h-1.841v6.116c0 0.395 0.083 0.693 0.247 0.893 0.164 0.194 0.444 0.292 0.839 0.292 0.195 0 0.461-0.036 0.801-0.109v1.367c-0.443 0.121-0.875 0.182-1.293 0.182-0.755 0-1.323-0.228-1.705-0.684s-0.573-1.103-0.573-1.941v-6.116h-1.796v-1.303h1.796v-2.388h1.685zM236.593 21.691c-0.656 0.772-1.62 1.157-2.889 1.157-1.051 0-1.853-0.304-2.407-0.911-0.547-0.614-0.823-1.519-0.829-2.716v-6.417h1.687v6.371c0 1.495 0.608 2.242 1.823 2.242 1.288 0 2.145-0.48 2.571-1.44v-7.173h1.685v9.862h-1.604l-0.036-0.975zM243.105 12.805v11.001c0 1.896-0.86 2.844-2.58 2.844-0.371 0-0.713-0.055-1.029-0.164v-1.349c0.195 0.049 0.449 0.073 0.765 0.073 0.377 0 0.663-0.103 0.857-0.31 0.2-0.201 0.3-0.553 0.3-1.057v-11.038h1.687zM241.245 10.189c0-0.267 0.083-0.495 0.247-0.684 0.169-0.194 0.416-0.292 0.739-0.292 0.328 0 0.576 0.094 0.747 0.283s0.255 0.419 0.255 0.693c0 0.273-0.084 0.501-0.255 0.684s-0.419 0.273-0.747 0.273c-0.329 0-0.575-0.091-0.739-0.273s-0.247-0.41-0.247-0.684zM254.201 20.944c-0.431 0.668-0.996 1.167-1.695 1.495h0.008l-0.528 0.41c-0.687 0.553-1.029 1.091-1.029 1.613 0 0.437 0.236 0.656 0.711 0.656 0.291 0 0.595-0.079 0.911-0.237l0.119 1.103c-0.425 0.267-0.911 0.401-1.459 0.401-0.54 0-0.968-0.158-1.284-0.474-0.311-0.316-0.465-0.735-0.465-1.258 0-0.656 0.297-1.258 0.893-1.805-1.325-0.024-2.395-0.474-3.208-1.349-0.808-0.881-1.213-2.048-1.213-3.5v-0.301c0-0.978 0.185-1.85 0.556-2.616 0.377-0.772 0.9-1.373 1.568-1.805 0.675-0.438 1.404-0.656 2.188-0.656 1.281 0 2.279 0.422 2.989 1.267s1.067 2.054 1.067 3.628v0.702h-6.681c0.024 0.972 0.307 1.759 0.848 2.361 0.547 0.595 1.24 0.893 2.077 0.893 0.596 0 1.1-0.122 1.513-0.365s0.775-0.565 1.085-0.966l1.029 0.802zM250.273 14.008c-0.681 0-1.252 0.249-1.713 0.747-0.463 0.492-0.748 1.185-0.857 2.078h4.94v-0.128c-0.048-0.857-0.279-1.519-0.692-1.987-0.413-0.474-0.973-0.711-1.677-0.711zM362.184 22.667h-1.685v-9.862h1.685v9.862zM360.361 10.189c0-0.273 0.083-0.504 0.247-0.693 0.169-0.188 0.419-0.283 0.747-0.283s0.577 0.094 0.748 0.283c0.169 0.188 0.255 0.419 0.255 0.693s-0.085 0.501-0.255 0.684c-0.171 0.182-0.42 0.273-0.748 0.273s-0.577-0.091-0.747-0.273c-0.164-0.182-0.247-0.41-0.247-0.684z"></path>
<path fill="#2196f3" d="M267.171 17.298h-3.117v5.369h-1.759v-13.271h4.393c1.495 0 2.643 0.34 3.445 1.021 0.808 0.681 1.212 1.671 1.212 2.971 0 0.826-0.225 1.546-0.675 2.16-0.444 0.614-1.064 1.073-1.86 1.376l3.117 5.633v0.109h-1.877l-2.88-5.369zM264.053 15.867h2.689c0.868 0 1.559-0.225 2.068-0.675 0.517-0.45 0.775-1.051 0.775-1.805 0-0.82-0.245-1.449-0.737-1.887-0.487-0.438-1.192-0.659-2.115-0.665h-2.68v5.031zM278.195 22.849c-1.337 0-2.425-0.437-3.264-1.313-0.839-0.881-1.257-2.057-1.257-3.527v-0.31c0-0.978 0.185-1.85 0.556-2.616 0.376-0.772 0.899-1.373 1.568-1.805 0.675-0.438 1.403-0.656 2.187-0.656 1.283 0 2.279 0.422 2.989 1.267 0.712 0.845 1.067 2.054 1.067 3.628v0.702h-6.68c0.024 0.972 0.307 1.759 0.847 2.361 0.547 0.595 1.24 0.893 2.079 0.893 0.595 0 1.1-0.122 1.513-0.365s0.775-0.565 1.084-0.966l1.031 0.802c-0.827 1.27-2.067 1.905-3.719 1.905zM277.984 14.008c-0.68 0-1.252 0.249-1.713 0.747-0.461 0.492-0.747 1.185-0.856 2.078h4.94v-0.128c-0.049-0.857-0.28-1.519-0.693-1.987-0.413-0.474-0.972-0.711-1.677-0.711zM284.159 17.654c0-1.537 0.356-2.759 1.067-3.664 0.711-0.911 1.653-1.367 2.825-1.367 1.204 0 2.143 0.425 2.816 1.276l0.083-1.094h1.54v9.625c0 1.276-0.38 2.282-1.139 3.017-0.753 0.735-1.768 1.103-3.044 1.103-0.712 0-1.407-0.152-2.088-0.456-0.68-0.304-1.2-0.72-1.559-1.249l0.875-1.012c0.724 0.893 1.608 1.34 2.653 1.34 0.82 0 1.457-0.231 1.913-0.693 0.463-0.462 0.693-1.112 0.693-1.951v-0.848c-0.675 0.778-1.596 1.167-2.763 1.167-1.153 0-2.089-0.465-2.807-1.395-0.711-0.93-1.067-2.197-1.067-3.801zM285.855 17.845c0 1.112 0.228 1.987 0.683 2.625 0.456 0.632 1.095 0.948 1.915 0.948 1.063 0 1.844-0.483 2.343-1.449v-4.503c-0.517-0.942-1.292-1.413-2.324-1.413-0.821 0-1.461 0.319-1.924 0.957-0.461 0.638-0.692 1.583-0.692 2.835zM301.691 21.691c-0.656 0.772-1.62 1.157-2.889 1.157-1.052 0-1.853-0.304-2.407-0.911-0.547-0.614-0.823-1.519-0.829-2.716v-6.417h1.687v6.371c0 1.495 0.607 2.242 1.823 2.242 1.288 0 2.145-0.48 2.571-1.44v-7.173h1.685v9.862h-1.604l-0.036-0.975zM308.293 22.667h-1.687v-14h1.687v14zM317.649 22.667c-0.097-0.194-0.177-0.541-0.237-1.039-0.784 0.814-1.72 1.221-2.808 1.221-0.972 0-1.771-0.273-2.396-0.82-0.62-0.553-0.931-1.252-0.931-2.096 0-1.027 0.389-1.823 1.167-2.388 0.784-0.571 1.884-0.857 3.3-0.857h1.64v-0.775c0-0.589-0.176-1.057-0.528-1.404-0.352-0.352-0.872-0.529-1.559-0.529-0.601 0-1.105 0.152-1.513 0.456-0.407 0.304-0.611 0.671-0.611 1.103h-1.695c0-0.492 0.173-0.966 0.519-1.422 0.353-0.462 0.827-0.826 1.423-1.094 0.601-0.267 1.26-0.401 1.977-0.401 1.136 0 2.027 0.286 2.671 0.857 0.644 0.565 0.979 1.346 1.003 2.342v4.539c0 0.905 0.116 1.625 0.347 2.16v0.146h-1.768zM314.851 21.381c0.528 0 1.029-0.137 1.504-0.41 0.473-0.273 0.817-0.629 1.029-1.066v-2.023h-1.321c-2.065 0-3.099 0.605-3.099 1.814 0 0.529 0.176 0.942 0.528 1.24 0.353 0.298 0.805 0.447 1.359 0.447zM323.86 12.805l0.045 1.094c0.723-0.851 1.699-1.276 2.925-1.276 1.38 0 2.319 0.529 2.817 1.586 0.328-0.474 0.753-0.857 1.276-1.148 0.528-0.292 1.151-0.438 1.868-0.438 2.164 0 3.263 1.145 3.3 3.436v6.608h-1.687v-6.508c0-0.705-0.161-1.23-0.483-1.577-0.323-0.352-0.863-0.529-1.623-0.529-0.625 0-1.145 0.188-1.559 0.565-0.413 0.371-0.653 0.872-0.72 1.504v6.544h-1.695v-6.462c0-1.434-0.703-2.151-2.107-2.151-1.105 0-1.861 0.471-2.269 1.413v7.201h-1.685v-9.862h1.595zM341.036 22.667h-1.687v-9.862h1.687v9.862zM339.213 10.189c0-0.273 0.081-0.504 0.245-0.693 0.171-0.188 0.42-0.283 0.748-0.283s0.577 0.094 0.747 0.283c0.171 0.188 0.256 0.419 0.256 0.693s-0.085 0.501-0.256 0.684c-0.169 0.182-0.419 0.273-0.747 0.273s-0.577-0.091-0.748-0.273c-0.164-0.182-0.245-0.41-0.245-0.684zM345.897 12.805l0.055 1.24c0.755-0.948 1.739-1.422 2.953-1.422 2.084 0 3.136 1.176 3.153 3.527v6.517h-1.685v-6.526c-0.007-0.711-0.171-1.237-0.492-1.577-0.316-0.34-0.812-0.511-1.487-0.511-0.547 0-1.027 0.146-1.44 0.438s-0.735 0.674-0.965 1.148v7.027h-1.687v-9.862h1.595zM372.656 17.471v5.195h-1.749v-13.271h4.893c1.453 0 2.589 0.371 3.409 1.112 0.827 0.741 1.24 1.723 1.24 2.944 0 1.288-0.404 2.282-1.212 2.98-0.803 0.693-1.955 1.039-3.455 1.039h-3.127zM372.656 16.040h3.144c0.936 0 1.653-0.219 2.152-0.656 0.497-0.444 0.747-1.082 0.747-1.914 0-0.79-0.249-1.422-0.747-1.896-0.499-0.474-1.183-0.72-2.051-0.738h-3.245v5.204zM382.404 17.645c0-0.966 0.188-1.835 0.565-2.607 0.383-0.772 0.911-1.367 1.585-1.786 0.68-0.419 1.455-0.629 2.324-0.629 1.343 0 2.428 0.465 3.255 1.395 0.832 0.93 1.248 2.166 1.248 3.71v0.119c0 0.96-0.185 1.823-0.556 2.589-0.364 0.76-0.891 1.352-1.577 1.777-0.68 0.425-1.464 0.638-2.351 0.638-1.337 0-2.421-0.465-3.255-1.395-0.825-0.93-1.239-2.16-1.239-3.691v-0.119zM384.099 17.845c0 1.094 0.252 1.972 0.757 2.634 0.509 0.662 1.191 0.993 2.041 0.993 0.856 0 1.537-0.334 2.041-1.003 0.504-0.674 0.756-1.616 0.756-2.825 0-1.082-0.257-1.957-0.775-2.625-0.509-0.674-1.191-1.012-2.041-1.012-0.832 0-1.504 0.331-2.015 0.993-0.509 0.662-0.765 1.61-0.765 2.844zM395.888 22.667h-1.687v-14h1.687v14zM400.987 22.667h-1.685v-9.862h1.685v9.862zM399.164 10.189c0-0.273 0.083-0.504 0.247-0.693 0.169-0.188 0.419-0.283 0.747-0.283s0.577 0.094 0.748 0.283c0.169 0.188 0.255 0.419 0.255 0.693s-0.085 0.501-0.255 0.684c-0.171 0.182-0.42 0.273-0.748 0.273s-0.577-0.091-0.747-0.273c-0.164-0.182-0.247-0.41-0.247-0.684zM406.541 10.417v2.388h1.841v1.303h-1.841v6.116c0 0.395 0.083 0.693 0.247 0.893 0.164 0.194 0.444 0.292 0.839 0.292 0.195 0 0.461-0.036 0.801-0.109v1.367c-0.443 0.121-0.875 0.182-1.293 0.182-0.753 0-1.321-0.228-1.705-0.684-0.383-0.456-0.573-1.103-0.573-1.941v-6.116h-1.796v-1.303h1.796v-2.388h1.685zM414.148 20.197l2.296-7.392h1.805l-3.965 11.384c-0.613 1.641-1.589 2.461-2.925 2.461l-0.319-0.027-0.629-0.119v-1.367l0.456 0.037c0.571 0 1.015-0.115 1.331-0.346 0.321-0.231 0.587-0.653 0.792-1.267l0.375-1.003-3.519-9.753h1.841l2.461 7.392zM423.075 18.1l-1.057 1.103v3.464h-1.687v-14h1.687v8.467l0.903-1.085 3.072-3.245h2.051l-3.837 4.12 4.284 5.742h-1.979l-3.436-4.566zM437.972 20.944c-0.432 0.668-0.996 1.167-1.696 1.495h0.009l-0.528 0.41c-0.687 0.553-1.031 1.091-1.031 1.613 0 0.437 0.237 0.656 0.712 0.656 0.291 0 0.595-0.079 0.911-0.237l0.119 1.103c-0.425 0.267-0.912 0.401-1.459 0.401-0.54 0-0.969-0.158-1.285-0.474-0.309-0.316-0.464-0.735-0.464-1.258 0-0.656 0.297-1.258 0.893-1.805-1.325-0.024-2.395-0.474-3.209-1.349-0.808-0.881-1.212-2.048-1.212-3.5v-0.301c0-0.978 0.185-1.85 0.556-2.616 0.377-0.772 0.9-1.373 1.568-1.805 0.675-0.438 1.404-0.656 2.188-0.656 1.281 0 2.279 0.422 2.989 1.267s1.067 2.054 1.067 3.628v0.702h-6.681c0.024 0.972 0.307 1.759 0.848 2.361 0.547 0.595 1.239 0.893 2.077 0.893 0.596 0 1.1-0.122 1.513-0.365s0.775-0.565 1.084-0.966l1.031 0.802zM434.044 14.008c-0.681 0-1.252 0.249-1.715 0.747-0.461 0.492-0.747 1.185-0.856 2.078h4.94v-0.128c-0.048-0.857-0.28-1.519-0.693-1.987-0.412-0.474-0.972-0.711-1.676-0.711zM447.824 17.471v5.195h-1.751v-13.271h4.895c1.452 0 2.589 0.371 3.409 1.112 0.827 0.741 1.239 1.723 1.239 2.944 0 1.288-0.404 2.282-1.212 2.98-0.801 0.693-1.953 1.039-3.455 1.039h-3.125zM447.824 16.040h3.144c0.936 0 1.653-0.219 2.151-0.656 0.499-0.444 0.748-1.082 0.748-1.914 0-0.79-0.249-1.422-0.748-1.896-0.497-0.474-1.181-0.72-2.051-0.738h-3.244v5.204zM462.912 14.318c-0.255-0.043-0.531-0.064-0.829-0.064-1.105 0-1.856 0.471-2.251 1.413v7h-1.687v-9.862h1.641l0.027 1.139c0.553-0.881 1.337-1.322 2.352-1.322 0.328 0 0.577 0.043 0.747 0.128v1.568zM468.421 20.197l2.297-7.392h1.804l-3.964 11.384c-0.615 1.641-1.589 2.461-2.927 2.461l-0.319-0.027-0.629-0.119v-1.367l0.456 0.037c0.572 0 1.015-0.115 1.331-0.346 0.323-0.231 0.587-0.653 0.793-1.267l0.373-1.003-3.517-9.753h1.84l2.461 7.392zM483.328 20.342l1.896-7.538h1.685l-2.871 9.862h-1.367l-2.397-7.474-2.333 7.474h-1.367l-2.863-9.862h1.677l1.941 7.383 2.297-7.383h1.357l2.343 7.538zM495.281 22.667c-0.097-0.194-0.176-0.541-0.237-1.039-0.784 0.814-1.72 1.221-2.807 1.221-0.973 0-1.772-0.273-2.397-0.82-0.62-0.553-0.929-1.252-0.929-2.096 0-1.027 0.388-1.823 1.167-2.388 0.783-0.571 1.883-0.857 3.299-0.857h1.641v-0.775c0-0.589-0.177-1.057-0.529-1.404-0.352-0.352-0.872-0.529-1.559-0.529-0.601 0-1.105 0.152-1.513 0.456-0.407 0.304-0.611 0.671-0.611 1.103h-1.695c0-0.492 0.173-0.966 0.52-1.422 0.352-0.462 0.825-0.826 1.421-1.094 0.601-0.267 1.261-0.401 1.977-0.401 1.137 0 2.027 0.286 2.671 0.857 0.644 0.565 0.979 1.346 1.003 2.342v4.539c0 0.905 0.116 1.625 0.347 2.16v0.146h-1.768zM492.483 21.381c0.529 0 1.031-0.137 1.504-0.41 0.475-0.273 0.817-0.629 1.031-1.066v-2.023h-1.323c-2.065 0-3.099 0.605-3.099 1.814 0 0.529 0.176 0.942 0.529 1.24 0.352 0.298 0.804 0.447 1.357 0.447zM502.195 10.417v2.388h1.84v1.303h-1.84v6.116c0 0.395 0.081 0.693 0.245 0.893 0.164 0.194 0.444 0.292 0.839 0.292 0.195 0 0.461-0.036 0.803-0.109v1.367c-0.444 0.121-0.876 0.182-1.295 0.182-0.753 0-1.321-0.228-1.704-0.684-0.384-0.456-0.575-1.103-0.575-1.941v-6.116h-1.796v-1.303h1.796v-2.388h1.687zM508.168 12.805l0.055 1.24c0.753-0.948 1.737-1.422 2.953-1.422 2.084 0 3.135 1.176 3.153 3.527v6.517h-1.685v-6.526c-0.007-0.711-0.171-1.237-0.493-1.577-0.316-0.34-0.811-0.511-1.485-0.511-0.547 0-1.027 0.146-1.44 0.438s-0.735 0.674-0.967 1.148v7.027h-1.685v-9.862h1.595zM516.985 17.645c0-0.966 0.189-1.835 0.565-2.607 0.383-0.772 0.912-1.367 1.587-1.786 0.68-0.419 1.455-0.629 2.324-0.629 1.343 0 2.427 0.465 3.253 1.395 0.833 0.93 1.249 2.166 1.249 3.71v0.119c0 0.96-0.185 1.823-0.556 2.589-0.365 0.76-0.891 1.352-1.577 1.777-0.68 0.425-1.464 0.638-2.351 0.638-1.337 0-2.423-0.465-3.255-1.395-0.827-0.93-1.24-2.16-1.24-3.691v-0.119zM518.681 17.845c0 1.094 0.252 1.972 0.756 2.634 0.511 0.662 1.192 0.993 2.043 0.993 0.856 0 1.537-0.334 2.041-1.003 0.504-0.674 0.756-1.616 0.756-2.825 0-1.082-0.259-1.957-0.775-2.625-0.511-0.674-1.191-1.012-2.041-1.012-0.832 0-1.504 0.331-2.015 0.993s-0.765 1.61-0.765 2.844zM534.38 20.051c0-0.456-0.172-0.808-0.519-1.057-0.34-0.255-0.939-0.474-1.796-0.656-0.851-0.182-1.528-0.401-2.032-0.656-0.499-0.255-0.869-0.559-1.112-0.911-0.237-0.352-0.356-0.772-0.356-1.258 0-0.808 0.34-1.492 1.021-2.051 0.687-0.559 1.561-0.839 2.624-0.839 1.119 0 2.024 0.289 2.717 0.866 0.699 0.577 1.048 1.316 1.048 2.215h-1.696c0-0.462-0.197-0.86-0.592-1.194-0.389-0.334-0.881-0.501-1.477-0.501-0.613 0-1.093 0.134-1.44 0.401-0.345 0.267-0.519 0.617-0.519 1.048 0 0.407 0.16 0.714 0.483 0.921s0.903 0.404 1.741 0.592c0.844 0.188 1.528 0.413 2.051 0.675s0.908 0.577 1.157 0.948c0.255 0.365 0.383 0.811 0.383 1.34 0 0.881-0.352 1.589-1.057 2.124-0.705 0.529-1.619 0.793-2.744 0.793-0.789 0-1.488-0.14-2.096-0.419s-1.084-0.668-1.431-1.167c-0.34-0.504-0.511-1.048-0.511-1.632h1.687c0.031 0.565 0.255 1.015 0.675 1.349 0.425 0.328 0.984 0.492 1.676 0.492 0.639 0 1.149-0.128 1.532-0.383 0.389-0.261 0.583-0.608 0.583-1.039zM533.315 8.667h2.041l-2.443 2.68h-1.359l1.76-2.68zM542.779 21.473c0.601 0 1.128-0.182 1.577-0.547s0.699-0.82 0.747-1.367h1.596c-0.031 0.565-0.225 1.103-0.584 1.613s-0.839 0.918-1.44 1.221c-0.595 0.304-1.227 0.456-1.896 0.456-1.343 0-2.412-0.447-3.208-1.34-0.789-0.899-1.185-2.127-1.185-3.682v-0.283c0-0.96 0.177-1.814 0.529-2.561s0.856-1.328 1.513-1.741c0.661-0.413 1.443-0.62 2.341-0.62 1.107 0 2.024 0.331 2.753 0.993 0.735 0.662 1.127 1.522 1.176 2.579h-1.596c-0.048-0.638-0.291-1.161-0.728-1.568-0.432-0.413-0.967-0.62-1.605-0.62-0.856 0-1.521 0.31-1.996 0.93-0.468 0.614-0.701 1.504-0.701 2.671v0.319c0 1.136 0.233 2.011 0.701 2.625s1.137 0.921 2.005 0.921zM550.987 22.667h-1.687v-9.862h1.687v9.862zM549.163 10.189c0-0.273 0.083-0.504 0.247-0.693 0.171-0.188 0.419-0.283 0.748-0.283 0.328 0 0.577 0.094 0.747 0.283 0.171 0.188 0.256 0.419 0.256 0.693s-0.085 0.501-0.256 0.684c-0.169 0.182-0.419 0.273-0.747 0.273-0.329 0-0.577-0.091-0.748-0.273-0.164-0.182-0.247-0.41-0.247-0.684zM554.289 21.783c0-0.292 0.085-0.535 0.256-0.729 0.176-0.194 0.437-0.292 0.784-0.292 0.345 0 0.607 0.097 0.783 0.292 0.183 0.195 0.275 0.438 0.275 0.729 0 0.279-0.092 0.513-0.275 0.702-0.176 0.188-0.437 0.283-0.783 0.283-0.347 0-0.608-0.094-0.784-0.283-0.171-0.188-0.256-0.422-0.256-0.702z"></path>
<path fill="#2196f3" d="M260.763 24.49h93.124v0.911h-93.124v-0.911zM369.365 24.49h188.524v0.911h-188.524v-0.911z"></path>
</svg>
